<?xml version="1.0" encoding="utf-8"?>
<!-- Generator: Adobe Illustrator 24.1.1, SVG Export Plug-In . SVG Version: 6.00 Build 0)  -->
<svg version="1.1" id="Layer_1" xmlns="http://www.w3.org/2000/svg" xmlns:xlink="http://www.w3.org/1999/xlink" x="0px" y="0px"
	 viewBox="0 0 1080 1080" style="enable-background:new 0 0 1080 1080;" xml:space="preserve">
<style type="text/css">
	.st0{fill:#FFFFFF;stroke:#000000;stroke-miterlimit:10;}
	.st1{fill:#AF4E39;}
</style>
<circle class="st0" cx="541.1" cy="532.9" r="342.6"/>
<g>
	<path class="st1" d="M593.9,872.7c0-1.1,0-2,0-3c0-18,0-36,0-54c-0.1-113.3-0.2-226.6-0.3-339.9c0-4.3,0.1-8.6-0.2-12.9
		c-0.3-5.7-0.5-11.5-2.2-17c-1.8-6-5.5-10.3-11.4-12.8c-5.1-2.1-10.4-2.9-15.9-3.2c-2.8-0.2-5.6,0-8.4-0.4c-2.6-0.4-5.1-1.2-7.7-1.9
		c0-1.4,0-2.5,0-3.8c3.4-1,6.7-2.6,10.5-2.6c12.1,0.1,24.2,0,36.2,0c12.4,0,24.8,0.1,37.2,0.2c9.7,0.1,19.3,0.2,29,0.3
		c7.4,0.1,14.9,0.1,22.3,0.2c10.2,0.1,20.5,0.1,30.7,0.5c7.2,0.3,14.2,1.9,21.2,3.6c10.4,2.6,20.2,6.5,29.2,12.3
		c17.9,11.7,29.1,28.1,33.3,49.1c1.3,6.6,2,13.3,1.7,20c-0.4,10-2.1,19.8-4.9,29.4c-4.5,15.2-12.1,28.7-22.7,40.4
		c-15.9,17.5-35.5,29-58.7,34.1c-9.4,2.1-18.9,2.7-28.5,2.3c-1.7-0.1-3.5-0.3-5.2-0.5c-3.6-0.5-6.4-2.3-8.7-5.3
		c3.8-2.5,7.6-4,12.1-4.7c11.7-1.7,22.8-5.5,32.6-12.4c7.9-5.5,14.3-12.5,19-20.9c5.1-9.1,8.1-18.9,9.4-29.2
		c0.8-5.7,1.4-11.4,1.5-17.1c0.2-13-2.1-25.6-7.6-37.4c-3.9-8.6-9.3-16.2-15.7-23c-8.1-8.7-17.8-15-29.1-18.6
		c-5.4-1.7-11-2.8-16.7-3.1c-3.3-0.2-6.7-0.4-10-0.3c-2.4,0.1-4.9,0.4-7.3,1c-4.9,1.3-7.3,4.8-8,9.7c-0.6,4.2-0.6,8.4-0.2,12.6
		c0.1,0.9,0,1.9,0,2.9c0,117.6,0,235.3,0,352.9c0,1.1,0,2.2,0,3.7c1.8-0.7,3.3-1.2,4.9-1.8c19.6-7.7,38.3-17.2,56-28.6
		c13-8.5,25.3-17.9,36.8-28.3c14.4-13,27.5-27.4,39.4-42.7c10.8-13.9,20.4-28.6,28.7-44.1c7.1-13.3,13.2-27.1,18.2-41.4
		c5.2-14.9,9.3-30,12.1-45.5c1.3-7.2,2.3-14.5,3.1-21.8c0.8-6.6,1.2-13.3,1.8-20c0.2-2.1,0.1-4.2,0.2-6.2c0.1-3.3,0.3-6.7,0.3-10
		c0-4.5-0.1-9.1-0.3-13.6c-0.2-5.2-0.6-10.3-1-15.5c-0.9-10.5-2.4-20.9-4.4-31.2c-2.7-13.8-6.3-27.4-10.9-40.7
		c-3.7-10.7-8-21.2-12.8-31.5c-7.3-15.6-16-30.4-25.8-44.5c-7-10-14.4-19.7-22.7-28.8c-4.7-5.2-9.4-10.4-14.4-15.4
		c-12.7-12.6-26.5-24-41.2-34.3c-14.1-9.9-28.9-18.6-44.4-26c-19.6-9.4-39.9-16.6-61-21.7c-11.9-2.8-23.9-4.9-36-6.4
		c-14.8-1.8-29.6-2.2-44.5-1.8c-8,0.2-16,1.2-24.1,1.8c-0.5,0-1.1,0-1.9,0c0-1,0-1.7,0-2.5c0-7.9,0-15.8,0-23.8c0-0.2,0-0.5,0-0.7
		c0.1-4.6,2.3-6.7,6.8-6.9c2.3-0.1,4.6-0.1,6.9-0.2c8.8-0.2,17.6-0.4,26.3-0.5c10.9-0.1,21.8,0.8,32.7,1.9c10.6,1.1,21,2.8,31.4,4.8
		c16.9,3.4,33.5,8.2,49.7,14c12.5,4.5,24.6,9.8,36.5,15.7c24.9,12.6,48,27.9,69.1,46.2c8.5,7.4,16.7,15.2,24.4,23.3
		c20.2,21.3,37.3,44.8,51.4,70.5c10.7,19.6,19.6,40,26.3,61.3c5.3,16.5,9.5,33.3,12.1,50.4c1.3,8.8,2.4,17.7,3.4,26.5
		c1.2,10.1,1.6,20.2,1.5,30.3c-0.1,6.9,0.1,13.9-0.2,20.8c-0.4,8.1-1.4,16.2-2.2,24.3c-0.9,8.8-2.5,17.5-4.3,26.2
		c-2,9.5-4.4,18.8-7.2,28c-4,13.1-8.8,25.8-14.4,38.3c-6.3,14.2-13.6,27.8-21.8,41c-9.8,15.8-20.9,30.8-33.1,44.8
		c-4.3,4.9-8.8,9.7-13.4,14.4c-11,11.6-23,22.1-35.6,32c-15.2,11.9-31.4,22.5-48.4,31.8c-12.4,6.8-25.2,12.7-38.4,17.9
		c-17.7,7-35.9,12.4-54.5,16.2c-5.2,1.1-10.5,1.6-15.8,2.4C595.4,872.7,594.8,872.7,593.9,872.7z"/>
	<path class="st1" d="M488.5,192.9c0,1.1,0,2,0,3c0,25.1,0,50.2,0,75.3c0,20.4,0.2,40.8,0.3,61.1c0.1,21.5,0.1,43,0.2,64.5
		c0.1,47.9,0.3,95.8,0.3,143.7c0,8.2-0.5,16.4-0.9,24.6c-0.5,9.8-1.6,19.5-3.2,29.2c-2.7,16.3-7.6,31.8-15.4,46.4
		c-5.5,10.3-12.2,19.8-20.1,28.6c-12.7,14.2-27.6,25.6-43.7,35.5c-9.8,6-20.1,11.2-30.3,16.4c-4,2-7.8,2.6-11.9-0.1
		c2.5-3.3,4.8-6.8,8.7-8.9c10-5.5,18.7-12.5,26.4-20.9c9.4-10.2,16.2-21.9,21-34.9c4.1-11.1,6.6-22.6,7.8-34.4
		c0.6-6.3,1-12.5,1.4-18.8c0.4-6.7,0.7-13.4,1-20.1c0.2-6.7,0.5-13.4,0.5-20.1c0.1-105,0.2-210,0.3-315c0-1.1,0-2.2,0-3.6
		c-1.1,0.3-1.8,0.4-2.5,0.7c-8,3.3-16,6.5-23.8,10c-14.2,6.5-27.5,14.5-40.4,23.4c-10.3,7.2-20.2,14.8-29.5,23.3
		c-6.2,5.7-12.4,11.5-18.3,17.6c-11.3,11.7-21.6,24.4-30.9,37.8c-8.9,12.8-16.8,26.2-23.6,40.3c-8.7,17.8-15.6,36.4-20.6,55.6
		c-3,11.3-5.3,22.7-6.9,34.2c-1,6.7-1.5,13.5-2.1,20.2c-1,9.9-1.1,19.8-1,29.7c0.2,11.5,1,22.9,2.3,34.3c1.9,16,4.9,31.7,9.1,47.2
		c4.6,17,10.8,33.4,18.4,49.3c8.3,17.3,18.2,33.5,29.6,48.9c6.2,8.3,12.8,16.4,19.9,23.9c5.8,6.1,11.6,12.2,17.7,17.9
		c12.5,11.8,25.9,22.5,40.1,32.2c10.8,7.3,21.9,14,33.5,19.9c12,6.1,24.4,11.4,37.2,15.9c17.4,6.1,35.2,10.4,53.3,13.2
		c7.9,1.2,16,1.8,24,2.6c11.8,1.2,23.6,1.1,35.4,0.9c6.4-0.1,12.7-0.6,19.1-1c0.5,0,1.1,0,1.7,0c0,11.3,0,22.5,0,33.8
		c-1.3,0.1-2.4,0.1-3.6,0.2c-11.5,0.6-23,0.8-34.5,0.4c-4.9-0.1-9.7-0.2-14.6-0.5c-6.2-0.4-12.4-1-18.5-1.8
		c-9.2-1.2-18.3-2.4-27.4-4c-16.4-2.9-32.5-7.3-48.3-12.8c-10-3.5-19.9-7.5-29.5-12c-16.2-7.5-31.7-16.3-46.4-26.4
		c-11.1-7.6-21.7-15.8-31.8-24.6c-7.9-6.9-15.5-14.1-22.8-21.6c-14.1-14.6-27.2-30.1-38.7-46.9c-9.4-13.7-17.8-28-25.1-43
		c-5.9-12-11-24.3-15.4-36.9c-4.7-13.4-8.5-27.1-11.5-41c-2.2-10.3-4.1-20.6-5.1-31.1c-0.8-7.5-1.5-15.1-1.9-22.6
		c-0.4-9.4-0.6-18.8-0.5-28.3c0.1-10.4,1.1-20.8,2.3-31.2c1.8-14.7,4.5-29.1,8.1-43.5c4.8-18.8,11.1-37,19.1-54.6
		c13.5-29,30.3-56.1,50.5-81c8.9-10.9,18.5-21.2,28.7-30.9c20-18.9,42-35,66.1-48.4c18.3-10.1,37.3-18.5,57.1-25.3
		c19.1-6.6,38.6-11.7,58.5-15.5C487.6,192.9,487.9,192.9,488.5,192.9z"/>
	<path class="st1" d="M562.9,559c0.1,11.2-8.9,20.9-20.8,21c-11.7,0.1-21.1-9.2-21.1-20.8c-0.1-10.5,7.6-21,20.9-21.1
		C554.6,538,562.9,548,562.9,559z"/>
</g>
</svg>
