<?xml version="1.0" encoding="utf-8"?>
<!-- Generator: Adobe Illustrator 24.1.1, SVG Export Plug-In . SVG Version: 6.00 Build 0)  -->
<svg version="1.1" id="Layer_1" xmlns="http://www.w3.org/2000/svg" xmlns:xlink="http://www.w3.org/1999/xlink" x="0px" y="0px"
	 viewBox="0 0 16 16" style="enable-background:new 0 0 16 16;" xml:space="preserve">
<style type="text/css">
	.st0{fill:#AF4E39;}
</style>
<path class="st0" d="M16,8c0,4.4-3.6,8-8,8s-8-3.6-8-8s3.6-8,8-8S16,3.6,16,8z M6.3,5C5.6,5,5,5.6,5,6.3v3.5C5,10.4,5.6,11,6.3,11
	s1.3-0.6,1.3-1.3V6.3C7.5,5.6,6.9,5,6.3,5z M9.8,5C9.1,5,8.5,5.6,8.5,6.3v3.5c0,0.7,0.6,1.3,1.3,1.3S11,10.4,11,9.8V6.3
	C11,5.6,10.4,5,9.8,5z"/>
</svg>
